<svg width="363" height="17" viewBox="0 0 363 17" fill="none" xmlns="http://www.w3.org/2000/svg">
<path d="M178.491 13.144C177.659 13.144 176.931 12.96 176.307 12.592C175.683 12.224 175.195 11.716 174.843 11.068C174.491 10.412 174.315 9.656 174.315 8.8C174.315 7.944 174.491 7.192 174.843 6.544C175.195 5.888 175.683 5.376 176.307 5.008C176.931 4.64 177.659 4.456 178.491 4.456C179.323 4.456 180.051 4.64 180.675 5.008C181.299 5.376 181.783 5.888 182.127 6.544C182.479 7.192 182.655 7.944 182.655 8.8C182.655 9.656 182.479 10.412 182.127 11.068C181.783 11.716 181.299 12.224 180.675 12.592C180.051 12.96 179.323 13.144 178.491 13.144ZM178.491 12.004C179.067 12.004 179.567 11.876 179.991 11.62C180.423 11.364 180.759 10.996 180.999 10.516C181.239 10.036 181.359 9.464 181.359 8.8C181.359 8.136 181.239 7.564 180.999 7.084C180.759 6.604 180.423 6.236 179.991 5.98C179.567 5.724 179.067 5.596 178.491 5.596C177.915 5.596 177.411 5.724 176.979 5.98C176.547 6.236 176.211 6.604 175.971 7.084C175.739 7.564 175.623 8.136 175.623 8.8C175.623 9.464 175.739 10.036 175.971 10.516C176.211 10.996 176.547 11.364 176.979 11.62C177.411 11.876 177.915 12.004 178.491 12.004ZM186.22 13.144C185.5 13.144 184.932 12.92 184.516 12.472C184.108 12.024 183.904 11.356 183.904 10.468V7.048H185.176V10.336C185.176 11.488 185.648 12.064 186.592 12.064C187.064 12.064 187.452 11.896 187.756 11.56C188.06 11.224 188.212 10.744 188.212 10.12V7.048H189.484V13H188.356L188.26 11.956C188.076 12.324 187.804 12.616 187.444 12.832C187.092 13.04 186.684 13.144 186.22 13.144Z" fill="#848484"/>
<line x1="363" y1="10.5" x2="202.728" y2="10.5" stroke="#EAEAEA"/>
<line x1="160.272" y1="10.5" x2="-1.53052e-05" y2="10.5" stroke="#EAEAEA"/>
</svg>
